<svg width="5" height="18" viewBox="0 0 5 18" fill="none" xmlns="http://www.w3.org/2000/svg">
<path d="M2.5 2V2.01V2ZM2.5 9V9.01V9ZM2.5 16V16.01V16ZM2.5 3C2.23478 3 1.98043 2.89464 1.79289 2.70711C1.60536 2.51957 1.5 2.26522 1.5 2C1.5 1.73478 1.60536 1.48043 1.79289 1.29289C1.98043 1.10536 2.23478 1 2.5 1C2.76522 1 3.01957 1.10536 3.20711 1.29289C3.39464 1.48043 3.5 1.73478 3.5 2C3.5 2.26522 3.39464 2.51957 3.20711 2.70711C3.01957 2.89464 2.76522 3 2.5 3ZM2.5 10C2.23478 10 1.98043 9.89464 1.79289 9.70711C1.60536 9.51957 1.5 9.26522 1.5 9C1.5 8.73478 1.60536 8.48043 1.79289 8.29289C1.98043 8.10536 2.23478 8 2.5 8C2.76522 8 3.01957 8.10536 3.20711 8.29289C3.39464 8.48043 3.5 8.73478 3.5 9C3.5 9.26522 3.39464 9.51957 3.20711 9.70711C3.01957 9.89464 2.76522 10 2.5 10ZM2.5 17C2.23478 17 1.98043 16.8946 1.79289 16.7071C1.60536 16.5196 1.5 16.2652 1.5 16C1.5 15.7348 1.60536 15.4804 1.79289 15.2929C1.98043 15.1054 2.23478 15 2.5 15C2.76522 15 3.01957 15.1054 3.20711 15.2929C3.39464 15.4804 3.5 15.7348 3.5 16C3.5 16.2652 3.39464 16.5196 3.20711 16.7071C3.01957 16.8946 2.76522 17 2.5 17Z" stroke="#CCD0D7" stroke-width="2" stroke-linecap="round" stroke-linejoin="round"/>
</svg>
